<svg
  width="1em"
  height="1em"
  viewBox="0 0 18 18"
  xmlns="http://www.w3.org/2000/svg"
>
  <g
    stroke="none"
    stroke-width="1"
    transform="translate(-0.2608699999999544, 0)"
  >
    <path
      d="M9.19565217,0.749999966 C13.8510524,0.749999966 17.625,4.4436508 17.625,9 C17.625,13.5563492 13.8510524,17.25 9.19565217,17.25 C4.5402519,17.25 0.766304313,13.5563492 0.766304313,9 C0.766304313,4.4436508 4.5402519,0.749999966 9.19565217,0.749999966 Z M9.19565217,2.24999997 C5.38668831,2.24999997 2.29891301,5.27207792 2.29891301,9 C2.29891301,12.7279221 5.38668831,15.75 9.19565217,15.75 C13.004616,15.75 16.0923913,12.7279221 16.0923913,9 C16.0923913,5.27207792 13.004616,2.24999997 9.19565217,2.24999997 Z M8.65379317,11.4696699 C8.95305363,11.1767767 9.43825071,11.1767767 9.73751118,11.4696699 C10.0367716,11.7625631 10.0367716,12.2374369 9.73751118,12.5303301 C9.43825071,12.8232233 8.95305363,12.8232233 8.65379317,12.5303301 C8.35453271,12.2374369 8.35453271,11.7625631 8.65379317,11.4696699 Z M9.19565217,5.24999998 C9.61887038,5.24999998 9.96195652,5.58578642 9.96195652,5.99999999 L9.96195652,5.99999999 L9.96195652,9 C9.96195652,9.41421356 9.61887038,9.74999998 9.19565217,9.74999998 C8.77243397,9.74999998 8.42934782,9.41421356 8.42934782,9 L8.42934782,9 L8.42934782,5.99999999 C8.42934782,5.58578642 8.77243397,5.24999998 9.19565217,5.24999998 Z"
      fill="currentColor"
    />
  </g>
</svg>
