<svg width="46" height="46" viewBox="0 0 46 46" fill="none" xmlns="http://www.w3.org/2000/svg">
<rect x="3" y="3" width="40" height="40" rx="20" fill="#D1E9FF"/>
<path d="M23.1474 21.6027C23.2287 21.684 23.2287 21.8159 23.1474 21.8973C23.066 21.9787 22.9341 21.9787 22.8527 21.8973C22.7714 21.8159 22.7714 21.684 22.8527 21.6027C22.9341 21.5213 23.066 21.5213 23.1474 21.6027" stroke="#1570EF" stroke-width="1.5" stroke-linecap="round" stroke-linejoin="round"/>
<path d="M19.3974 21.6027C19.4787 21.684 19.4787 21.8159 19.3974 21.8973C19.316 21.9787 19.1841 21.9787 19.1027 21.8973C19.0214 21.8159 19.0214 21.684 19.1027 21.6027C19.1841 21.5213 19.316 21.5213 19.3974 21.6027" stroke="#1570EF" stroke-width="1.5" stroke-linecap="round" stroke-linejoin="round"/>
<path d="M26.8974 21.6027C26.9787 21.684 26.9787 21.8159 26.8974 21.8973C26.816 21.9787 26.6841 21.9787 26.6027 21.8973C26.5214 21.8159 26.5214 21.684 26.6027 21.6027C26.6841 21.5213 26.816 21.5213 26.8974 21.6027" stroke="#1570EF" stroke-width="1.5" stroke-linecap="round" stroke-linejoin="round"/>
<path fill-rule="evenodd" clip-rule="evenodd" d="M15.5 26.3375V17.1667C15.5 16.7067 15.8733 16.3333 16.3333 16.3333H29.6667C30.1267 16.3333 30.5 16.7067 30.5 17.1667V29.6667L25.5758 27.2167L16.3292 27.1708C15.8708 27.1683 15.5 26.7958 15.5 26.3375Z" stroke="#1570EF" stroke-width="1.5" stroke-linecap="round" stroke-linejoin="round"/>
<rect x="3" y="3" width="40" height="40" rx="20" stroke="#EFF8FF" stroke-width="6"/>
</svg>
